<svg width="56" height="56" viewBox="0 0 56 56" fill="none" xmlns="http://www.w3.org/2000/svg">
<g clip-path="url(#clip0_240_203)">
<path d="M20.0259 44.6339V43.8584H46.6821V0.979126H1.0531V44.6339C1.0531 49.3104 4.12817 53.321 8.50067 55.0208H12.5783C16.9508 53.3288 20.0259 49.3182 20.0259 44.6339Z" fill="white" stroke="#333333" stroke-width="2.5" stroke-linecap="round" stroke-linejoin="round"/>
<path d="M20.0258 43.8584V44.6339C20.0258 49.3103 16.9507 53.321 12.5782 55.0208H47.4993C51.8718 53.321 54.9468 49.3103 54.9468 44.6339V43.8584H20.0258Z" fill="#E25057" stroke="#333333" stroke-width="2.5"/>
<path d="M9.25048 19.9043C9.03144 19.9043 8.81239 19.8417 8.61862 19.7163C8.1384 19.3952 8.02888 18.7607 8.3743 18.3142L12.6373 12.8152C12.8058 12.5959 13.0669 12.4471 13.345 12.4079C13.6314 12.3687 13.9263 12.4314 14.1537 12.5959L17.4816 14.8989L21.1211 9.54875C21.4412 9.07875 22.1068 8.93775 22.6123 9.23542C23.1178 9.53308 23.2694 10.1519 22.9493 10.6219L18.6863 16.8885C18.5262 17.1235 18.2651 17.288 17.9702 17.3428C17.6753 17.3977 17.372 17.3272 17.1277 17.1627L13.7409 14.8205L10.1182 19.4892C9.92447 19.7633 9.58748 19.9043 9.25048 19.9043Z" fill="#333333"/>
<path d="M11.1376 18.9017C11.1376 19.8652 10.2951 20.6485 9.25887 20.6485C8.22261 20.6485 7.38013 19.8652 7.38013 18.9017C7.38013 17.9382 8.22261 17.1548 9.25887 17.1548C10.2951 17.147 11.1376 17.9303 11.1376 18.9017Z" fill="#E25057"/>
<path d="M15.4006 13.4027C15.4006 14.3662 14.5581 15.1495 13.5218 15.1495C12.4856 15.1495 11.6431 14.3662 11.6431 13.4027C11.6431 12.4392 12.4856 11.6559 13.5218 11.6559C14.5581 11.6559 15.4006 12.4392 15.4006 13.4027Z" fill="#E25057"/>
<path d="M19.6636 16.3559C19.6636 17.3194 18.8211 18.1027 17.7849 18.1027C16.7486 18.1027 15.9061 17.3194 15.9061 16.3559C15.9061 15.3924 16.7486 14.6091 17.7849 14.6091C18.8211 14.6012 19.6636 15.3846 19.6636 16.3559Z" fill="#E25057"/>
<path d="M23.9266 10.0892C23.9266 11.0527 23.0841 11.836 22.0478 11.836C21.0116 11.836 20.1691 11.0527 20.1691 10.0892C20.1691 9.12573 21.0116 8.34241 22.0478 8.34241C23.0841 8.34241 23.9266 9.12573 23.9266 10.0892Z" fill="#E25057"/>
<path d="M37.6001 11.2956H29.984C29.3859 11.2956 28.9056 10.8491 28.9056 10.2929C28.9056 9.73678 29.3859 9.29028 29.984 9.29028H37.6001C38.1983 9.29028 38.6785 9.73678 38.6785 10.2929C38.6785 10.8491 38.1898 11.2956 37.6001 11.2956Z" fill="#333333"/>
<path d="M37.6001 15.455H29.984C29.3859 15.455 28.9056 15.0085 28.9056 14.4524C28.9056 13.8962 29.3859 13.4497 29.984 13.4497H37.6001C38.1983 13.4497 38.6785 13.8962 38.6785 14.4524C38.6785 15.0085 38.1898 15.455 37.6001 15.455Z" fill="#333333"/>
<path d="M35.5192 19.6224H29.9756C29.3774 19.6224 28.8972 19.1759 28.8972 18.6197C28.8972 18.0636 29.3774 17.6171 29.9756 17.6171H35.5192C36.1173 17.6171 36.5975 18.0636 36.5975 18.6197C36.5975 19.1681 36.1173 19.6224 35.5192 19.6224Z" fill="#333333"/>
<path d="M17.6164 26.735H7.75085V35.1087H17.6164V26.735Z" fill="white" stroke="#333333" stroke-width="2.5" stroke-linecap="round" stroke-linejoin="round"/>
<path d="M22.1068 27.5339H40.4898" stroke="#E25057" stroke-width="2" stroke-miterlimit="10" stroke-linecap="round" stroke-linejoin="round"/>
<path d="M22.1068 30.9258H40.4898" stroke="#E25057" stroke-width="2" stroke-miterlimit="10" stroke-linecap="round" stroke-linejoin="round"/>
<path d="M22.1068 34.3175H40.4898" stroke="#E25057" stroke-width="2" stroke-miterlimit="10" stroke-linecap="round" stroke-linejoin="round"/>
</g>
<defs>
<clipPath id="clip0_240_203">
<rect width="56" height="56" fill="white"/>
</clipPath>
</defs>
</svg>
